<mxfile host="app.diagrams.net" modified="2020-07-11T17:15:19.503Z" agent="5.0 (Macintosh; Intel Mac OS X 10_15_5) AppleWebKit/537.36 (KHTML, like Gecko) Chrome/83.0.4103.116 Safari/537.36" etag="-H64FNw96sH7BazpjiVO" version="13.4.0" type="github">
  <diagram id="wr9Klig08tz31e96zgJG" name="Page-1">
    <mxGraphModel dx="2066" dy="1105" grid="1" gridSize="10" guides="1" tooltips="1" connect="1" arrows="1" fold="1" page="1" pageScale="1" pageWidth="827" pageHeight="1169" math="0" shadow="0">
      <root>
        <mxCell id="0" />
        <mxCell id="1" parent="0" />
        <mxCell id="Xe_Jn0Yr2sVz_pPIDhlK-2" value="" style="rounded=0;whiteSpace=wrap;html=1;strokeColor=#6c8ebf;direction=south;fillColor=#dae8fc;" vertex="1" parent="1">
          <mxGeometry x="220" y="360" width="60" height="140" as="geometry" />
        </mxCell>
        <mxCell id="Xe_Jn0Yr2sVz_pPIDhlK-6" value="" style="rounded=0;whiteSpace=wrap;html=1;strokeColor=#6c8ebf;direction=south;fillColor=#dae8fc;" vertex="1" parent="1">
          <mxGeometry x="280" y="360" width="60" height="140" as="geometry" />
        </mxCell>
        <mxCell id="Xe_Jn0Yr2sVz_pPIDhlK-7" value="" style="rounded=0;whiteSpace=wrap;html=1;strokeColor=#6c8ebf;direction=south;fillColor=#dae8fc;" vertex="1" parent="1">
          <mxGeometry x="340" y="360" width="60" height="140" as="geometry" />
        </mxCell>
        <mxCell id="Xe_Jn0Yr2sVz_pPIDhlK-8" value="" style="rounded=0;whiteSpace=wrap;html=1;strokeColor=#6c8ebf;direction=south;fillColor=#dae8fc;" vertex="1" parent="1">
          <mxGeometry x="400" y="360" width="60" height="140" as="geometry" />
        </mxCell>
        <mxCell id="Xe_Jn0Yr2sVz_pPIDhlK-9" value="" style="rounded=0;whiteSpace=wrap;html=1;strokeColor=#6c8ebf;direction=south;fillColor=#dae8fc;" vertex="1" parent="1">
          <mxGeometry x="460" y="360" width="60" height="140" as="geometry" />
        </mxCell>
        <mxCell id="Xe_Jn0Yr2sVz_pPIDhlK-10" value="" style="rounded=0;whiteSpace=wrap;html=1;strokeColor=#6c8ebf;direction=south;fillColor=#dae8fc;" vertex="1" parent="1">
          <mxGeometry x="520" y="360" width="60" height="140" as="geometry" />
        </mxCell>
        <mxCell id="nZHn6ieUkOkDJYo_L3ya-1" value="User Space Processes" style="rounded=0;whiteSpace=wrap;html=1;fillColor=#dae8fc;strokeColor=#6c8ebf;" parent="1" vertex="1">
          <mxGeometry x="220" y="300" width="360" height="60" as="geometry" />
        </mxCell>
        <mxCell id="nZHn6ieUkOkDJYo_L3ya-2" value="" style="rounded=0;whiteSpace=wrap;html=1;fillColor=#d5e8d4;strokeColor=#82b366;" parent="1" vertex="1">
          <mxGeometry x="220" y="500" width="360" height="60" as="geometry" />
        </mxCell>
        <mxCell id="nZHn6ieUkOkDJYo_L3ya-3" value="Memory Management" style="text;html=1;fillColor=none;align=center;verticalAlign=middle;whiteSpace=wrap;rounded=0;direction=south;rotation=270;" parent="1" vertex="1">
          <mxGeometry x="460" y="370" width="50" height="120" as="geometry" />
        </mxCell>
        <mxCell id="nZHn6ieUkOkDJYo_L3ya-4" value="Device Drivers" style="text;html=1;strokeColor=none;fillColor=none;align=center;verticalAlign=middle;whiteSpace=wrap;rounded=0;rotation=270;" parent="1" vertex="1">
          <mxGeometry x="410" y="420" width="40" height="20" as="geometry" />
        </mxCell>
        <mxCell id="nZHn6ieUkOkDJYo_L3ya-5" value="CPU scheduler&lt;br&gt;" style="text;html=1;strokeColor=none;fillColor=none;align=center;verticalAlign=middle;whiteSpace=wrap;rounded=0;" parent="1" vertex="1">
          <mxGeometry x="450" y="520" width="40" height="20" as="geometry" />
        </mxCell>
        <mxCell id="nZHn6ieUkOkDJYo_L3ya-6" value="File management" style="text;html=1;strokeColor=none;fillColor=none;align=center;verticalAlign=middle;whiteSpace=wrap;rounded=0;rotation=270;" parent="1" vertex="1">
          <mxGeometry x="350" y="420" width="40" height="20" as="geometry" />
        </mxCell>
        <mxCell id="nZHn6ieUkOkDJYo_L3ya-7" value="Networking&amp;nbsp;&lt;br&gt;Stack" style="text;html=1;strokeColor=none;fillColor=none;align=center;verticalAlign=middle;whiteSpace=wrap;rounded=0;rotation=270;" parent="1" vertex="1">
          <mxGeometry x="290" y="410" width="40" height="40" as="geometry" />
        </mxCell>
        <mxCell id="nZHn6ieUkOkDJYo_L3ya-9" value="System Call Interface" style="text;html=1;fillColor=none;align=center;verticalAlign=middle;whiteSpace=wrap;rounded=0;rotation=270;" parent="1" vertex="1">
          <mxGeometry x="172" y="410" width="156" height="40" as="geometry" />
        </mxCell>
        <mxCell id="nZHn6ieUkOkDJYo_L3ya-10" value="Inter process &lt;br&gt;communication&amp;nbsp;" style="text;html=1;strokeColor=none;fillColor=none;align=center;verticalAlign=middle;whiteSpace=wrap;rounded=0;" parent="1" vertex="1">
          <mxGeometry x="260" y="510" width="106" height="40" as="geometry" />
        </mxCell>
        <mxCell id="nZHn6ieUkOkDJYo_L3ya-11" value="" style="shape=curlyBracket;whiteSpace=wrap;html=1;rounded=1;" parent="1" vertex="1">
          <mxGeometry x="200" y="500" width="20" height="60" as="geometry" />
        </mxCell>
        <mxCell id="nZHn6ieUkOkDJYo_L3ya-12" value="&lt;font style=&quot;font-size: 16px&quot;&gt;kernel Space&lt;/font&gt;" style="text;html=1;align=center;verticalAlign=middle;resizable=0;points=[];autosize=1;rotation=270;" parent="1" vertex="1">
          <mxGeometry x="110" y="520" width="110" height="20" as="geometry" />
        </mxCell>
      </root>
    </mxGraphModel>
  </diagram>
</mxfile>
